<svg xmlns="http://www.w3.org/2000/svg" fill="#000000" class="bi bi-sign-merge-right-fill" viewBox="0 0 32 32" id="Sign-Merge-Right-Fill--Streamline-Bootstrap" height="32" width="32">
  <desc>
    Sign Merge Right Fill Streamline Icon: https://streamlinehq.com
  </desc>
  <path d="M18.1 0.87c-1.16 -1.16 -3.04 -1.16 -4.2 0L0.872 13.9c-1.16 1.16 -1.16 3.038 0 4.196l13.032 13.032c1.16 1.16 3.038 1.16 4.196 0l13.032 -13.032c1.16 -1.16 1.16 -3.038 0 -4.196zM17.5 12v2q0.422 0.902 1.176 1.9c1.074 1.432 2.518 2.88 4.032 4.392l-1.416 1.416 -0.03 -0.032c-1.304 -1.304 -2.66 -2.66 -3.762 -4.03V24h-3V12H12.068a0.5 0.5 0 0 1 -0.384 -0.82l3.932 -4.72a0.5 0.5 0 0 1 0.768 0l3.932 4.72a0.5 0.5 0 0 1 -0.384 0.82z" stroke-width="2"></path>
</svg>